<svg xmlns:xlink="http://www.w3.org/1999/xlink" xmlns="http://www.w3.org/2000/svg" width="216" height="80" viewBox="0 0 216 80" fill="none">
<path fill-rule="evenodd" clip-rule="evenodd" d="M52.7272 24.0374C55.5791 25.6592 57.3307 28.7069 57.3024 31.9983L57.1655 47.9531C57.1379 51.1618 55.4222 54.1165 52.6551 55.7207L38.4275 63.9684C35.6604 65.5725 32.2547 65.5867 29.4744 64.0056L15.6502 56.1441C12.7984 54.5224 11.0468 51.4746 11.075 48.1832L11.212 32.2284C11.2395 29.0197 12.9552 26.065 15.7224 24.4609L29.9499 16.2131C32.7171 14.609 36.1227 14.5949 38.903 16.1759L52.7272 24.0374ZM47.6973 36.4252C46.9494 39.2566 44.0893 40.9564 41.2932 40.2482L27.9782 36.6306C25.7853 36.0343 23.5028 36.3397 21.5414 37.4877C19.5804 38.6355 18.1782 40.4868 17.5911 42.7102C17.0035 44.934 17.3042 47.2556 18.4424 49.2541C19.5806 51.2526 21.4136 52.6775 23.6072 53.2735C25.8001 53.8698 28.0826 53.5643 30.0437 52.4165C32.005 51.2686 33.4072 49.4173 33.9943 47.1939L34.4586 45.3254C34.5172 45.0895 34.3771 44.8499 34.1434 44.7864L31.9066 44.1784C31.6663 44.1131 31.4194 44.2587 31.3592 44.5013L30.9053 46.3297C30.148 49.1914 27.2347 50.8955 24.4129 50.1292C21.5996 49.3642 19.9271 46.4272 20.6801 43.5747C21.428 40.7433 24.2886 39.0421 27.0847 39.7503L40.3992 43.3693C42.5921 43.9656 44.8746 43.6602 46.836 42.5122C48.7971 41.3644 50.1993 39.5131 50.7863 37.2897C51.374 35.0659 51.0732 32.7443 49.9351 30.7458C48.7969 28.7473 46.9638 27.3224 44.7703 26.7265C42.5774 26.1302 40.2949 26.4356 38.3338 27.5834C36.3724 28.7314 34.9702 30.5826 34.3832 32.806L33.9439 34.2832C33.8724 34.5238 34.0124 34.7763 34.2537 34.8419L36.4906 35.4499C36.7232 35.5131 36.9636 35.3787 37.0326 35.1468L37.4722 33.6702C38.2294 30.8085 41.1428 29.1044 43.9645 29.8707C46.7779 30.6358 48.4504 33.5727 47.6973 36.4252Z" fill="url(#paint0_linear_388_5391)"/>
<path d="M81.8594 27.5044C81.4139 24.2728 78.9389 22.3978 75.7284 22.3978C71.9451 22.3978 69.0952 25.1677 69.0952 29.8694C69.0952 34.564 71.9097 37.341 75.7284 37.341C79.1722 37.341 81.4564 35.1038 81.8594 32.3268L79.2147 32.3126C78.8823 34.0171 77.4963 34.9759 75.7637 34.9759C73.416 34.9759 71.7329 33.2075 71.7329 29.8694C71.7329 26.5882 73.4018 24.7629 75.7708 24.7629C77.5316 24.7629 78.9106 25.7643 79.2147 27.5044H81.8594Z" fill="black"/>
<path d="M88.8868 37.3552C92.0691 37.3552 94.0915 35.1038 94.0915 31.7302C94.0915 28.3495 92.0691 26.091 88.8868 26.091C85.7046 26.091 83.6822 28.3495 83.6822 31.7302C83.6822 35.1038 85.7046 37.3552 88.8868 37.3552ZM88.901 35.2955C87.1402 35.2955 86.2774 33.7188 86.2774 31.7231C86.2774 29.7274 87.1402 28.1294 88.901 28.1294C90.6335 28.1294 91.4963 29.7274 91.4963 31.7231C91.4963 33.7188 90.6335 35.2955 88.901 35.2955Z" fill="black"/>
<path d="M98.8242 30.7501C98.8242 29.1734 99.7718 28.2643 101.122 28.2643C102.445 28.2643 103.237 29.1379 103.237 30.5938V37.1421H105.797V30.1961C105.804 27.5825 104.319 26.091 102.077 26.091C100.451 26.091 99.3334 26.8722 98.8384 28.0867H98.7111V26.233H96.2643V37.1421H98.8242V30.7501Z" fill="black"/>
<path d="M113.823 26.233H111.68V23.6194H109.12V26.233H107.579V28.2217H109.12V34.287C109.106 36.3396 110.591 37.3481 112.515 37.2913C113.243 37.27 113.745 37.1279 114.021 37.0356L113.59 35.0257C113.448 35.0612 113.158 35.1251 112.84 35.1251C112.197 35.1251 111.68 34.8978 111.68 33.8609V28.2217H113.823V26.233Z" fill="black"/>
<path d="M115.964 37.1421H118.524V26.233H115.964V37.1421ZM117.251 24.6847C118.064 24.6847 118.729 24.0597 118.729 23.2927C118.729 22.5186 118.064 21.8936 117.251 21.8936C116.431 21.8936 115.766 22.5186 115.766 23.2927C115.766 24.0597 116.431 24.6847 117.251 24.6847Z" fill="black"/>
<path d="M123.716 30.7501C123.716 29.1734 124.664 28.2643 126.014 28.2643C127.337 28.2643 128.129 29.1379 128.129 30.5938V37.1421H130.689V30.1961C130.696 27.5825 129.211 26.091 126.969 26.091C125.343 26.091 124.225 26.8722 123.73 28.0867H123.603V26.233H121.156V37.1421H123.716V30.7501Z" fill="black"/>
<path d="M140.214 32.5541C140.214 34.216 139.033 35.0399 137.902 35.0399C136.671 35.0399 135.851 34.1663 135.851 32.7813V26.233H133.291V33.1791C133.291 35.7998 134.776 37.2842 136.912 37.2842C138.538 37.2842 139.684 36.4248 140.179 35.2032H140.292V37.1421H142.774V26.233H140.214V32.5541Z" fill="black"/>
<path d="M150.145 37.3552C153.327 37.3552 155.349 35.1038 155.349 31.7302C155.349 28.3495 153.327 26.091 150.145 26.091C146.962 26.091 144.94 28.3495 144.94 31.7302C144.94 35.1038 146.962 37.3552 150.145 37.3552ZM150.159 35.2955C148.398 35.2955 147.535 33.7188 147.535 31.7231C147.535 29.7274 148.398 28.1294 150.159 28.1294C151.891 28.1294 152.754 29.7274 152.754 31.7231C152.754 33.7188 151.891 35.2955 150.159 35.2955Z" fill="black"/>
<path d="M164.445 32.5541C164.445 34.216 163.264 35.0399 162.133 35.0399C160.902 35.0399 160.082 34.1663 160.082 32.7813V26.233H157.522V33.1791C157.522 35.7998 159.007 37.2842 161.143 37.2842C162.769 37.2842 163.915 36.4248 164.41 35.2032H164.523V37.1421H167.005V26.233H164.445V32.5541Z" fill="black"/>
<path d="M178.222 29.1166C177.869 27.27 176.398 26.091 173.852 26.091C171.236 26.091 169.454 27.3836 169.461 29.4007C169.454 30.9916 170.429 32.0427 172.516 32.4759L174.368 32.8666C175.365 33.0867 175.832 33.4916 175.832 34.1095C175.832 34.8552 175.026 35.4163 173.81 35.4163C172.636 35.4163 171.872 34.9049 171.653 33.9248L169.157 34.1663C169.475 36.1691 171.151 37.3552 173.817 37.3552C176.532 37.3552 178.449 35.9418 178.456 33.8751C178.449 32.3197 177.452 31.368 175.401 30.9205L173.548 30.5228C172.445 30.2742 172.006 29.8907 172.013 29.2586C172.006 28.52 172.82 28.0086 173.887 28.0086C175.068 28.0086 175.691 28.6549 175.889 29.3722L178.222 29.1166Z" fill="black"/>
<path d="M74.3706 58.5707C78.7833 58.5707 81.3998 55.8292 81.3998 51.2838C81.3998 46.7525 78.7833 44.0253 74.4696 44.0253H69.4629V58.5707H74.3706ZM72.0865 56.2909V46.3051H74.3211C77.2629 46.3051 78.7974 47.9528 78.7974 51.2838C78.7974 54.6289 77.2629 56.2909 74.2433 56.2909H72.0865Z" fill="black"/>
<path d="M88.5881 58.7838C91.1197 58.7838 92.8593 57.5409 93.3119 55.6446L90.9217 55.3747C90.5752 56.298 89.7266 56.7809 88.6234 56.7809C86.9687 56.7809 85.8726 55.6872 85.8514 53.8193H93.418V53.0309C93.418 49.2028 91.1268 47.5196 88.4537 47.5196C85.3422 47.5196 83.3127 49.8136 83.3127 53.1801C83.3127 56.6034 85.3139 58.7838 88.5881 58.7838ZM85.8584 52.0863C85.9362 50.6943 86.9616 49.5224 88.4891 49.5224C89.96 49.5224 90.95 50.602 90.9641 52.0863H85.8584Z" fill="black"/>
<path d="M98.1436 44.0253H95.5836V58.5707H98.1436V44.0253Z" fill="black"/>
<path d="M100.776 58.5707H103.336V47.6616H100.776V58.5707ZM102.063 46.1133C102.876 46.1133 103.541 45.4883 103.541 44.7213C103.541 43.9471 102.876 43.3221 102.063 43.3221C101.243 43.3221 100.578 43.9471 100.578 44.7213C100.578 45.4883 101.243 46.1133 102.063 46.1133Z" fill="black"/>
<path d="M115.671 47.6616H112.948L110.445 55.7653H110.331L107.835 47.6616H105.106L108.974 58.5707H111.802L115.671 47.6616Z" fill="black"/>
<path d="M121.881 58.7838C124.413 58.7838 126.152 57.5409 126.605 55.6446L124.215 55.3747C123.868 56.298 123.02 56.7809 121.917 56.7809C120.262 56.7809 119.166 55.6872 119.144 53.8193H126.711V53.0309C126.711 49.2028 124.42 47.5196 121.747 47.5196C118.635 47.5196 116.606 49.8136 116.606 53.1801C116.606 56.6034 118.607 58.7838 121.881 58.7838ZM119.152 52.0863C119.229 50.6943 120.255 49.5224 121.782 49.5224C123.253 49.5224 124.243 50.602 124.257 52.0863H119.152Z" fill="black"/>
<path d="M128.877 58.5707H131.437V52.1574C131.437 50.7724 132.476 49.7923 133.883 49.7923C134.315 49.7923 134.852 49.8704 135.071 49.9414V47.5764C134.838 47.5338 134.435 47.5054 134.152 47.5054C132.908 47.5054 131.868 48.2156 131.472 49.4798H131.359V47.6616H128.877V58.5707Z" fill="black"/>
<path d="M138.694 62.6616C140.688 62.6616 141.841 61.6318 142.456 59.8917L146.819 47.6758L144.082 47.6616L141.572 55.9003H141.459L138.956 47.6616H136.24L140.179 58.798L139.96 59.3875C139.486 60.6304 138.736 60.7156 137.619 60.3889L137.025 62.3917C137.371 62.5338 137.994 62.6616 138.694 62.6616Z" fill="black"/>
<defs>
<linearGradient id="paint0_linear_388_5391" x1="17.7843" y1="15" x2="44.1457" y2="64.906" gradientUnits="userSpaceOnUse">
<stop stop-color="#62F91F"/>
<stop offset="1" stop-color="#45BD35"/>
</linearGradient>
</defs>
</svg>