<svg xmlns:xlink="http://www.w3.org/1999/xlink" xmlns="http://www.w3.org/2000/svg" width="240" height="89" viewBox="0 0 240 89" fill="none">
<path fill-rule="evenodd" clip-rule="evenodd" d="M74.6429 40.0004C74.6429 42.8643 74.0874 45.6488 73.1172 48.2132C72.939 48.6841 72.3377 48.8024 71.9796 48.4485L64.8563 41.4111C64.5591 41.1175 64.5094 40.6589 64.7031 40.2888C65.4756 38.8124 65.8619 37.1236 65.8619 35.3576C65.9628 29.6045 61.219 24.8607 55.365 24.8607C53.5064 24.8607 51.803 25.3263 50.3229 26.1215C49.9586 26.3172 49.505 26.2705 49.2107 25.98L42.8696 19.7213C42.4228 19.2802 42.5594 18.5288 43.1456 18.3037C45.7239 17.3137 48.4632 16.7861 51.4286 16.7861C64.247 16.7861 74.6429 27.1821 74.6429 40.0004ZM37.9921 21.1087C38.406 20.817 38.9674 20.8777 39.3254 21.2357L46.5312 28.4415C46.8496 28.7599 46.8775 29.2635 46.6276 29.638C45.5013 31.3264 44.8681 33.3133 44.8681 35.4585C44.8681 41.3125 49.6119 46.0563 55.4659 46.0563C57.6111 46.0563 59.598 45.4231 61.2864 44.2968C61.6609 44.0469 62.1645 44.0748 62.4829 44.3932L70.2827 52.1929C70.6459 52.5562 70.7022 53.1278 70.3988 53.5423C66.1156 59.3935 59.2847 63.2147 51.4286 63.2147C38.6103 63.2147 28.2144 52.8187 28.2144 40.0004C28.2144 32.1374 32.0423 25.3013 37.9921 21.1087ZM55.4659 42.019C59.4022 42.019 62.5311 38.8902 62.5311 34.9538C62.5311 31.0175 59.4022 27.8886 55.4659 27.8886C51.5296 27.8886 48.4007 31.0175 48.4007 34.9538C48.4007 38.8902 51.5296 42.019 55.4659 42.019Z" fill="url(#paint0_linear_388_6370)"/>
<path d="M99.5991 27.5053C99.1517 24.2738 96.6659 22.3988 93.4415 22.3988C89.6418 22.3988 86.7795 25.1687 86.7795 29.8704C86.7795 34.565 89.6062 37.342 93.4415 37.342C96.9003 37.342 99.1943 35.1048 99.5991 32.3278L96.9429 32.3136C96.6091 34.0181 95.217 34.9769 93.477 34.9769C91.119 34.9769 89.4287 33.2085 89.4287 29.8704C89.4287 26.5891 91.1048 24.7638 93.4841 24.7638C95.2526 24.7638 96.6375 25.7653 96.9429 27.5053H99.5991Z" fill="black"/>
<path d="M106.657 37.3562C109.853 37.3562 111.884 35.1048 111.884 31.7312C111.884 28.3505 109.853 26.092 106.657 26.092C103.461 26.092 101.43 28.3505 101.43 31.7312C101.43 35.1048 103.461 37.3562 106.657 37.3562ZM106.671 35.2965C104.903 35.2965 104.036 33.7198 104.036 31.7241C104.036 29.7283 104.903 28.1303 106.671 28.1303C108.411 28.1303 109.278 29.7283 109.278 31.7241C109.278 33.7198 108.411 35.2965 106.671 35.2965Z" fill="black"/>
<path d="M116.637 30.7511C116.637 29.1744 117.589 28.2653 118.946 28.2653C120.274 28.2653 121.069 29.1388 121.069 30.5948V37.1431H123.64V30.1971C123.647 27.5835 122.156 26.092 119.905 26.092C118.271 26.092 117.149 26.8732 116.652 28.0877H116.524V26.234H114.066V37.1431H116.637V30.7511Z" fill="black"/>
<path d="M131.701 26.234H129.549V23.6204H126.978V26.234H125.43V28.2227H126.978V34.288C126.964 36.3406 128.456 37.3491 130.387 37.2923C131.119 37.271 131.623 37.1289 131.9 37.0366L131.467 35.0266C131.325 35.0621 131.034 35.1261 130.714 35.1261C130.068 35.1261 129.549 34.8988 129.549 33.8619V28.2227H131.701V26.234Z" fill="black"/>
<path d="M133.852 37.1431H136.423V26.234H133.852V37.1431ZM135.144 24.6857C135.961 24.6857 136.629 24.0607 136.629 23.2937C136.629 22.5195 135.961 21.8945 135.144 21.8945C134.32 21.8945 133.653 22.5195 133.653 23.2937C133.653 24.0607 134.32 24.6857 135.144 24.6857Z" fill="black"/>
<path d="M141.637 30.7511C141.637 29.1744 142.589 28.2653 143.946 28.2653C145.274 28.2653 146.069 29.1388 146.069 30.5948V37.1431H148.64V30.1971C148.647 27.5835 147.156 26.092 144.905 26.092C143.271 26.092 142.149 26.8732 141.652 28.0877H141.524V26.234H139.066V37.1431H141.637V30.7511Z" fill="black"/>
<path d="M158.207 32.555C158.207 34.217 157.021 35.0408 155.885 35.0408C154.649 35.0408 153.825 34.1673 153.825 32.7823V26.234H151.254V33.18C151.254 35.8008 152.745 37.2852 154.89 37.2852C156.524 37.2852 157.674 36.4258 158.172 35.2042H158.285V37.1431H160.778V26.234H158.207V32.555Z" fill="black"/>
<path d="M168.18 37.3562C171.376 37.3562 173.408 35.1048 173.408 31.7312C173.408 28.3505 171.376 26.092 168.18 26.092C164.984 26.092 162.953 28.3505 162.953 31.7312C162.953 35.1048 164.984 37.3562 168.18 37.3562ZM168.195 35.2965C166.426 35.2965 165.56 33.7198 165.56 31.7241C165.56 29.7283 166.426 28.1303 168.195 28.1303C169.935 28.1303 170.801 29.7283 170.801 31.7241C170.801 33.7198 169.935 35.2965 168.195 35.2965Z" fill="black"/>
<path d="M182.543 32.555C182.543 34.217 181.357 35.0408 180.221 35.0408C178.985 35.0408 178.161 34.1673 178.161 32.7823V26.234H175.59V33.18C175.59 35.8008 177.081 37.2852 179.226 37.2852C180.86 37.2852 182.01 36.4258 182.508 35.2042H182.621V37.1431H185.114V26.234H182.543V32.555Z" fill="black"/>
<path d="M196.38 29.1175C196.025 27.271 194.548 26.092 191.991 26.092C189.363 26.092 187.573 27.3846 187.58 29.4016C187.573 30.9925 188.553 32.0437 190.649 32.4769L192.509 32.8675C193.511 33.0877 193.979 33.4925 193.979 34.1104C193.979 34.8562 193.17 35.4173 191.948 35.4173C190.769 35.4173 190.002 34.9059 189.782 33.9258L187.275 34.1673C187.595 36.1701 189.278 37.3562 191.955 37.3562C194.683 37.3562 196.607 35.9428 196.614 33.8761C196.607 32.3207 195.606 31.369 193.546 30.9215L191.685 30.5238C190.577 30.2752 190.137 29.8917 190.144 29.2596C190.137 28.521 190.954 28.0096 192.026 28.0096C193.212 28.0096 193.837 28.6559 194.036 29.3732L196.38 29.1175Z" fill="black"/>
<path d="M89.7838 44.0262H87.1489V58.5717H89.7838V44.0262Z" fill="black"/>
<path d="M95.0945 52.1796C95.0945 50.6029 96.0462 49.6938 97.4028 49.6938C98.7309 49.6938 99.5263 50.5674 99.5263 52.0234V58.5717H102.097V51.6257C102.104 49.012 100.613 47.5205 98.3616 47.5205C96.728 47.5205 95.6059 48.3018 95.1087 49.5163H94.9809V47.6626H92.5235V58.5717H95.0945V52.1796Z" fill="black"/>
<path d="M110.158 47.6626H108.006V45.049H105.435V47.6626H103.887V49.6512H105.435V55.7166C105.421 57.7691 106.913 58.7776 108.845 58.7208C109.576 58.6995 110.08 58.5575 110.357 58.4651L109.924 56.4552C109.782 56.4907 109.491 56.5546 109.171 56.5546C108.525 56.5546 108.006 56.3274 108.006 55.2904V49.6512H110.158V47.6626Z" fill="black"/>
<path d="M117.021 58.7847C119.564 58.7847 121.311 57.5419 121.765 55.6455L119.365 55.3757C119.017 56.299 118.164 56.7819 117.057 56.7819C115.395 56.7819 114.294 55.6882 114.272 53.8203H121.872V53.0319C121.872 49.2038 119.571 47.5205 116.886 47.5205C113.761 47.5205 111.723 49.8146 111.723 53.1811C111.723 56.6044 113.733 58.7847 117.021 58.7847ZM114.28 52.0873C114.358 50.6953 115.387 49.5234 116.922 49.5234C118.399 49.5234 119.393 50.6029 119.407 52.0873H114.28Z" fill="black"/>
<path d="M128.791 62.8899C131.739 62.8899 133.912 61.5404 133.912 58.7492V47.6626H131.376V49.4666H131.234C130.844 48.6782 130.027 47.5205 128.102 47.5205C125.581 47.5205 123.599 49.495 123.599 53.0816C123.599 56.6399 125.581 58.4154 128.095 58.4154C129.963 58.4154 130.837 57.414 131.234 56.6115H131.362V58.6782C131.362 60.2833 130.297 60.9438 128.834 60.9438C127.286 60.9438 126.604 60.2123 126.291 59.5731L123.976 60.1342C124.445 61.6612 126.014 62.8899 128.791 62.8899ZM128.813 56.3984C127.115 56.3984 126.22 55.0774 126.22 53.0674C126.22 51.0859 127.101 49.6299 128.813 49.6299C130.467 49.6299 131.376 51.0007 131.376 53.0674C131.376 55.1484 130.453 56.3984 128.813 56.3984Z" fill="black"/>
<path d="M136.547 58.5717H139.118V52.1583C139.118 50.7734 140.162 49.7933 141.575 49.7933C142.009 49.7933 142.548 49.8714 142.769 49.9424V47.5774C142.534 47.5347 142.129 47.5063 141.845 47.5063C140.595 47.5063 139.551 48.2166 139.153 49.4808H139.04V47.6626H136.547V58.5717Z" fill="black"/>
<path d="M147.401 58.7919C149.113 58.7919 150.135 57.9893 150.604 57.0731H150.689V58.5717H153.161V51.2705C153.161 48.387 150.81 47.5205 148.729 47.5205C146.435 47.5205 144.674 48.5433 144.106 50.5319L146.506 50.8728C146.762 50.1271 147.486 49.4879 148.743 49.4879C149.937 49.4879 150.59 50.0987 150.59 51.1711V51.2137C150.59 51.9524 149.816 51.9879 147.891 52.1938C145.775 52.4211 143.75 53.0532 143.75 55.5106C143.75 57.6555 145.32 58.7919 147.401 58.7919ZM148.069 56.9026C146.996 56.9026 146.229 56.4126 146.229 55.468C146.229 54.4808 147.088 54.0688 148.239 53.9055C148.914 53.8132 150.263 53.6427 150.597 53.3728V54.6583C150.597 55.8728 149.617 56.9026 148.069 56.9026Z" fill="black"/>
<path d="M161.194 47.6626H159.042V45.049H156.471V47.6626H154.922V49.6512H156.471V55.7166C156.456 57.7691 157.948 58.7776 159.88 58.7208C160.611 58.6995 161.115 58.5575 161.392 58.4651L160.959 56.4552C160.817 56.4907 160.526 56.5546 160.206 56.5546C159.56 56.5546 159.042 56.3274 159.042 55.2904V49.6512H161.194V47.6626Z" fill="black"/>
<path d="M163.344 58.5717H165.915V47.6626H163.344V58.5717ZM164.636 46.1143C165.453 46.1143 166.121 45.4893 166.121 44.7222C166.121 43.9481 165.453 43.3231 164.636 43.3231C163.813 43.3231 163.145 43.9481 163.145 44.7222C163.145 45.4893 163.813 46.1143 164.636 46.1143Z" fill="black"/>
<path d="M173.317 58.7847C176.513 58.7847 178.544 56.5333 178.544 53.1597C178.544 49.7791 176.513 47.5205 173.317 47.5205C170.121 47.5205 168.09 49.7791 168.09 53.1597C168.09 56.5333 170.121 58.7847 173.317 58.7847ZM173.331 56.7251C171.563 56.7251 170.696 55.1484 170.696 53.1526C170.696 51.1569 171.563 49.5589 173.331 49.5589C175.071 49.5589 175.938 51.1569 175.938 53.1526C175.938 55.1484 175.071 56.7251 173.331 56.7251Z" fill="black"/>
<path d="M183.298 52.1796C183.298 50.6029 184.249 49.6938 185.606 49.6938C186.934 49.6938 187.729 50.5674 187.729 52.0234V58.5717H190.3V51.6257C190.308 49.012 188.816 47.5205 186.565 47.5205C184.931 47.5205 183.809 48.3018 183.312 49.5163H183.184V47.6626H180.727V58.5717H183.298V52.1796Z" fill="black"/>
<path d="M88.5455 85V73.3636H92.3011C93.1269 73.3636 93.8163 73.5227 94.3693 73.8409C94.9261 74.1553 95.3447 74.5833 95.625 75.125C95.9091 75.6667 96.0511 76.2765 96.0511 76.9545C96.0511 77.6326 95.911 78.2443 95.6307 78.7898C95.3504 79.3314 94.9337 79.7614 94.3807 80.0795C93.8277 80.3939 93.1402 80.5511 92.3182 80.5511H89.3636V79.5966H92.2898C92.8996 79.5966 93.4053 79.483 93.8068 79.2557C94.2083 79.0246 94.5076 78.7102 94.7045 78.3125C94.9053 77.9148 95.0057 77.4621 95.0057 76.9545C95.0057 76.447 94.9053 75.9943 94.7045 75.5966C94.5076 75.1989 94.2064 74.8864 93.8011 74.6591C93.3996 74.4318 92.8902 74.3182 92.2727 74.3182H89.608V85H88.5455ZM101.634 85.1818C100.88 85.1818 100.213 84.9905 99.6335 84.608C99.0578 84.2254 98.607 83.697 98.2812 83.0227C97.9555 82.3447 97.7926 81.5625 97.7926 80.6761C97.7926 79.7822 97.9555 78.9962 98.2812 78.3182C98.607 77.6364 99.0578 77.1061 99.6335 76.7273C100.213 76.3447 100.88 76.1534 101.634 76.1534C102.387 76.1534 103.052 76.3447 103.628 76.7273C104.204 77.1098 104.654 77.6402 104.98 78.3182C105.31 78.9962 105.474 79.7822 105.474 80.6761C105.474 81.5625 105.312 82.3447 104.986 83.0227C104.66 83.697 104.207 84.2254 103.628 84.608C103.052 84.9905 102.387 85.1818 101.634 85.1818ZM101.634 84.2557C102.24 84.2557 102.753 84.0928 103.173 83.767C103.594 83.4413 103.912 83.0076 104.128 82.4659C104.348 81.9242 104.457 81.3277 104.457 80.6761C104.457 80.0246 104.348 79.4261 104.128 78.8807C103.912 78.3352 103.594 77.8977 103.173 77.5682C102.753 77.2386 102.24 77.0739 101.634 77.0739C101.031 77.0739 100.518 77.2386 100.094 77.5682C99.6733 77.8977 99.3532 78.3352 99.1335 78.8807C98.9176 79.4261 98.8097 80.0246 98.8097 80.6761C98.8097 81.3277 98.9176 81.9242 99.1335 82.4659C99.3532 83.0076 99.6733 83.4413 100.094 83.767C100.514 84.0928 101.027 84.2557 101.634 84.2557ZM109.335 85L106.699 76.2727H107.767L109.835 83.4716H109.909L111.972 76.2727H113.045L115.091 83.4545H115.17L117.239 76.2727H118.307L115.67 85H114.625L112.557 77.8466H112.449L110.381 85H109.335ZM123.504 85.1818C122.69 85.1818 121.985 84.9924 121.391 84.6136C120.796 84.2311 120.336 83.7027 120.01 83.0284C119.688 82.3504 119.527 81.5701 119.527 80.6875C119.527 79.8087 119.688 79.0284 120.01 78.3466C120.336 77.661 120.785 77.125 121.357 76.7386C121.932 76.3485 122.597 76.1534 123.351 76.1534C123.824 76.1534 124.281 76.2405 124.72 76.4148C125.16 76.5852 125.554 76.8485 125.902 77.2045C126.254 77.5568 126.533 78.0019 126.737 78.5398C126.942 79.0739 127.044 79.7064 127.044 80.4375V80.9375H120.226V80.0455H126.01C126.01 79.4848 125.896 78.9811 125.669 78.5341C125.446 78.0833 125.133 77.7273 124.732 77.4659C124.334 77.2045 123.874 77.0739 123.351 77.0739C122.798 77.0739 122.311 77.2216 121.891 77.517C121.47 77.8125 121.141 78.2027 120.902 78.6875C120.667 79.1723 120.548 79.7027 120.544 80.2784V80.8125C120.544 81.5057 120.663 82.1117 120.902 82.6307C121.144 83.1458 121.487 83.5455 121.93 83.8295C122.374 84.1136 122.898 84.2557 123.504 84.2557C123.917 84.2557 124.279 84.1913 124.589 84.0625C124.904 83.9337 125.167 83.7614 125.379 83.5455C125.595 83.3258 125.758 83.0852 125.868 82.8239L126.828 83.1364C126.696 83.5038 126.478 83.8428 126.175 84.1534C125.875 84.464 125.5 84.714 125.05 84.9034C124.603 85.089 124.088 85.1818 123.504 85.1818ZM129.273 85V76.2727H130.256V77.6136H130.33C130.504 77.1742 130.807 76.8201 131.239 76.5511C131.674 76.2784 132.167 76.142 132.716 76.142C132.799 76.142 132.892 76.1439 132.994 76.1477C133.097 76.1515 133.182 76.1553 133.25 76.1591V77.1875C133.205 77.1799 133.125 77.1686 133.011 77.1534C132.898 77.1383 132.775 77.1307 132.642 77.1307C132.188 77.1307 131.782 77.2273 131.426 77.4205C131.074 77.6098 130.795 77.8731 130.591 78.2102C130.386 78.5473 130.284 78.9318 130.284 79.3636V85H129.273ZM138.239 85.1818C137.424 85.1818 136.72 84.9924 136.125 84.6136C135.53 84.2311 135.07 83.7027 134.744 83.0284C134.422 82.3504 134.261 81.5701 134.261 80.6875C134.261 79.8087 134.422 79.0284 134.744 78.3466C135.07 77.661 135.519 77.125 136.091 76.7386C136.667 76.3485 137.331 76.1534 138.085 76.1534C138.559 76.1534 139.015 76.2405 139.455 76.4148C139.894 76.5852 140.288 76.8485 140.636 77.2045C140.989 77.5568 141.267 78.0019 141.472 78.5398C141.676 79.0739 141.778 79.7064 141.778 80.4375V80.9375H134.96V80.0455H140.744C140.744 79.4848 140.631 78.9811 140.403 78.5341C140.18 78.0833 139.867 77.7273 139.466 77.4659C139.068 77.2045 138.608 77.0739 138.085 77.0739C137.532 77.0739 137.045 77.2216 136.625 77.517C136.205 77.8125 135.875 78.2027 135.636 78.6875C135.402 79.1723 135.282 79.7027 135.278 80.2784V80.8125C135.278 81.5057 135.398 82.1117 135.636 82.6307C135.879 83.1458 136.222 83.5455 136.665 83.8295C137.108 84.1136 137.633 84.2557 138.239 84.2557C138.652 84.2557 139.013 84.1913 139.324 84.0625C139.638 83.9337 139.902 83.7614 140.114 83.5455C140.33 83.3258 140.492 83.0852 140.602 82.8239L141.562 83.1364C141.43 83.5038 141.212 83.8428 140.909 84.1534C140.61 84.464 140.235 84.714 139.784 84.9034C139.337 85.089 138.822 85.1818 138.239 85.1818ZM147.149 85.1818C146.433 85.1818 145.806 84.9924 145.268 84.6136C144.731 84.2348 144.31 83.7064 144.007 83.0284C143.708 82.3504 143.558 81.5606 143.558 80.6591C143.558 79.7614 143.708 78.9754 144.007 78.3011C144.31 77.6231 144.732 77.0966 145.274 76.7216C145.816 76.3428 146.446 76.1534 147.166 76.1534C147.696 76.1534 148.138 76.2481 148.49 76.4375C148.842 76.6231 149.125 76.8542 149.337 77.1307C149.549 77.4072 149.714 77.6761 149.831 77.9375H149.922V73.3636H150.939V85H149.95V83.3807H149.831C149.714 83.6458 149.547 83.9186 149.331 84.1989C149.115 84.4754 148.829 84.7083 148.473 84.8977C148.121 85.0871 147.679 85.1818 147.149 85.1818ZM147.268 84.2557C147.833 84.2557 148.314 84.1023 148.712 83.7955C149.109 83.4848 149.412 83.0587 149.621 82.517C149.833 81.9716 149.939 81.3466 149.939 80.642C149.939 79.9451 149.835 79.3295 149.626 78.7955C149.418 78.2576 149.115 77.8371 148.717 77.5341C148.32 77.2273 147.837 77.0739 147.268 77.0739C146.685 77.0739 146.193 77.233 145.791 77.5511C145.393 77.8655 145.09 78.2917 144.882 78.8295C144.678 79.3674 144.575 79.9716 144.575 80.642C144.575 81.3201 144.679 81.9318 144.888 82.4773C145.096 83.0227 145.399 83.4564 145.797 83.7784C146.198 84.0966 146.689 84.2557 147.268 84.2557ZM158.53 85V73.3636H159.547V77.9375H159.638C159.751 77.6761 159.914 77.4072 160.126 77.1307C160.342 76.8542 160.625 76.6231 160.973 76.4375C161.325 76.2481 161.768 76.1534 162.303 76.1534C163.018 76.1534 163.647 76.3428 164.189 76.7216C164.731 77.0966 165.153 77.6231 165.456 78.3011C165.759 78.9754 165.911 79.7614 165.911 80.6591C165.911 81.5606 165.759 82.3504 165.456 83.0284C165.157 83.7064 164.736 84.2348 164.195 84.6136C163.657 84.9924 163.032 85.1818 162.32 85.1818C161.789 85.1818 161.346 85.0871 160.99 84.8977C160.638 84.7083 160.354 84.4754 160.138 84.1989C159.922 83.9186 159.755 83.6458 159.638 83.3807H159.513V85H158.53ZM159.53 80.642C159.53 81.3466 159.634 81.9716 159.842 82.517C160.054 83.0587 160.357 83.4848 160.751 83.7955C161.149 84.1023 161.63 84.2557 162.195 84.2557C162.774 84.2557 163.265 84.0966 163.666 83.7784C164.068 83.4564 164.373 83.0227 164.581 82.4773C164.789 81.9318 164.893 81.3201 164.893 80.642C164.893 79.9716 164.789 79.3674 164.581 78.8295C164.376 78.2917 164.073 77.8655 163.672 77.5511C163.27 77.233 162.778 77.0739 162.195 77.0739C161.626 77.0739 161.143 77.2273 160.746 77.5341C160.352 77.8371 160.051 78.2576 159.842 78.7955C159.634 79.3295 159.53 79.9451 159.53 80.642ZM168.524 88.2727C168.323 88.2727 168.136 88.2538 167.962 88.2159C167.787 88.178 167.649 88.1364 167.547 88.0909L167.82 87.1989C168.164 87.3049 168.471 87.3428 168.74 87.3125C169.009 87.286 169.248 87.1648 169.456 86.9489C169.664 86.7367 169.85 86.411 170.013 85.9716L170.331 85.0852L167.121 76.2727H168.217L170.808 83.6648H170.888L173.479 76.2727H174.575L170.882 86.3807C170.727 86.8011 170.536 87.1515 170.308 87.4318C170.081 87.7159 169.818 87.9261 169.518 88.0625C169.223 88.2027 168.892 88.2727 168.524 88.2727Z" fill="black"/>
<path d="M183 75.1449H187.369C188.676 75.0458 189.969 75.4665 190.965 76.3149C191.403 76.8286 191.734 77.4236 191.939 78.0656C192.144 78.7076 192.219 79.3838 192.16 80.0549C192.214 80.7088 192.137 81.3669 191.932 81.9904C191.726 82.6139 191.398 83.1901 190.965 83.6849C189.984 84.5246 188.71 84.945 187.419 84.8549H183V75.1449ZM187.018 82.6849C187.437 82.6973 187.854 82.6224 188.243 82.4649C188.411 82.3901 188.561 82.2812 188.683 82.1451C188.806 82.0091 188.899 81.8489 188.956 81.6749C189.139 81.1552 189.221 80.6053 189.197 80.0549C189.22 79.4883 189.138 78.9223 188.956 78.3849C188.834 78.0284 188.588 77.727 188.263 77.5349C187.873 77.3584 187.446 77.2762 187.018 77.2949H185.852V82.6849H187.018ZM194.872 75.1449H199.964C200.44 75.1137 200.918 75.1802 201.367 75.3402C201.816 75.5001 202.227 75.7502 202.576 76.0749C203.188 76.779 203.495 77.696 203.429 78.6249C203.438 79.2357 203.271 79.8361 202.947 80.3549C202.623 80.8504 202.173 81.2509 201.641 81.5149C201.762 81.6014 201.864 81.71 201.943 81.8349C202.044 82.0045 202.131 82.1817 202.204 82.3649L203.329 84.9149H200.316L199.311 82.5749C199.248 82.4231 199.148 82.2891 199.02 82.1849C198.873 82.1033 198.706 82.0652 198.538 82.0749H197.734V84.9149H194.902V75.1449H194.872ZM199.211 79.8449C199.391 79.8634 199.574 79.8446 199.747 79.7895C199.919 79.7344 200.079 79.6444 200.215 79.5249C200.337 79.4042 200.431 79.2584 200.49 79.0977C200.549 78.937 200.572 78.7654 200.557 78.5949C200.557 77.7449 200.165 77.3249 199.331 77.3249H197.674V79.8749H199.191L199.211 79.8449ZM210.641 85.0149C209.291 85.1109 207.956 84.6846 206.914 83.8249C206.462 83.3124 206.118 82.7145 205.902 82.0669C205.686 81.4192 205.604 80.735 205.659 80.0549C205.596 79.3636 205.675 78.6668 205.891 78.0068C206.107 77.3467 206.455 76.7371 206.914 76.2149C207.95 75.3432 209.289 74.9121 210.641 75.0149C211.996 74.9127 213.337 75.3435 214.377 76.2149C214.835 76.7379 215.181 77.3479 215.395 78.0079C215.609 78.6679 215.686 79.3643 215.622 80.0549C215.679 80.7343 215.598 81.4182 215.384 82.0658C215.17 82.7134 214.828 83.3116 214.377 83.8249C213.327 84.6911 211.98 85.1177 210.621 85.0149H210.641ZM210.641 82.6049C210.933 82.63 211.227 82.5881 211.5 82.4823C211.774 82.3766 212.019 82.2099 212.218 81.9949C212.592 81.3983 212.758 80.6952 212.69 79.9949C212.754 79.295 212.588 78.5932 212.218 77.9949C211.777 77.6021 211.207 77.3848 210.616 77.3848C210.024 77.3848 209.454 77.6021 209.014 77.9949C208.652 78.5967 208.487 79.2956 208.542 79.9949C208.483 80.6945 208.648 81.3947 209.014 81.9949C209.218 82.2123 209.468 82.3817 209.746 82.4907C210.024 82.5997 210.323 82.6455 210.621 82.6249L210.641 82.6049ZM218.364 75.1449H220.795L224.471 80.2949V75.1449H227.324V84.8549H224.853L221.197 79.7349V84.8549H218.344L218.364 75.1449ZM230.417 75.1449H237.769V77.3249H233.209V78.9149H237.227V81.1149H233.209V82.7049H237.769V84.8849H230.367L230.417 75.1449Z" fill="#1E375A"/>
<defs>
<linearGradient id="paint0_linear_388_6370" x1="13.2175" y1="31.783" x2="43.2112" y2="78.2115" gradientUnits="userSpaceOnUse">
<stop stop-color="#73DFE7"/>
<stop offset="1" stop-color="#0095F7"/>
</linearGradient>
</defs>
</svg>